<svg width="1280" height="692" viewBox="0 0 1280 692" fill="none" xmlns="http://www.w3.org/2000/svg">
<g clip-path="url(#clip0_1010_91)">
<path d="M0 0.3125H1280V579.688H0V0.3125Z" fill="#FEFEFE"/>
<path d="M276.875 20.3125H296.875L316.25 21.5625L339.375 25.3125L355.625 29.0625L368.75 32.8125L388.75 40.3125L406.875 49.0625L420 55.9375L429.375 61.5625L436.25 65.9375L441.25 69.6875L450.625 76.5625L456.25 81.5625L461.875 85.9375L469.375 92.8125L485.625 109.062L491.25 115.938L497.5 123.438L505.625 134.688L514.375 148.438L521.875 160.938L530 177.812L536.25 193.438L542.5 212.188L546.875 230.312L551.25 255.938L551.875 260.938V267.812L551.25 268.438H535L533.75 265.312L530.625 242.812L526.875 225.312L522.5 209.688L515.625 190.938L510 178.438L503.125 165.312L495 152.188L486.875 140.312L480.625 132.188L476.25 126.562L471.875 122.188L467.5 117.188L448.75 98.4375L441.875 92.8125L434.375 87.1875L425.625 80.9375L409.375 70.9375L399.375 65.3125L381.25 57.1875L363.125 50.3125L347.5 45.9375L333.75 42.8125L316.875 40.3125L302.5 39.0625H267.5L251.25 40.9375L233.125 44.0625L213.75 49.0625L204.375 52.1875L193.125 56.5625L182.5 60.9375L168.75 67.8125L152.5 77.8125L140.625 85.9375L129.375 94.6875L122.5 100.312L113.125 109.688L108.75 113.438L104.375 118.438L98.125 124.688L90.625 134.688L86.25 140.312L79.375 149.688L75 157.188L71.25 163.438L62.5 180.312L56.875 192.812L48.75 215.938L43.75 235.938L40 259.062L38.75 274.062V297.188L40.625 317.188L43.75 335.938L48.125 354.062L55 374.688L61.875 390.312L68.125 403.438L75.625 416.562L83.125 427.812L88.75 435.312L95.625 444.062L102.5 452.188L107.5 457.188V458.438H108.75L113.125 463.438L121.25 470.938L129.375 477.812L136.25 483.438L142.5 487.812L149.375 492.812L163.75 501.562L177.5 509.062L195.625 517.188V535.938L183.125 531.562L166.25 523.438L156.25 518.438L138.75 507.812L130.625 501.562L119.375 493.438L109.375 484.062L102.5 478.438L91.875 467.812L87.5 462.812L81.875 456.562L75.625 448.438L66.875 436.562L60 425.938L54.375 416.562L46.875 402.188L40.625 388.438L33.75 370.312L30 357.812L25.625 339.062L21.875 316.562L20.625 296.562V274.688L21.875 257.188L24.375 239.688L27.5 224.688L32.5 205.938L38.75 188.438L43.75 176.562L50 163.438L57.5 150.312L66.25 136.562L75 124.688L80 118.438L86.875 110.312L91.25 105.312L98.125 97.8125L103.125 92.8125L108.125 88.4375L116.875 80.9375L128.125 72.1875L138.75 64.6875L151.875 56.5625L161.25 50.9375L176.875 43.4375L193.75 36.5625L207.5 31.5625L230 25.9375L243.75 23.4375L262.5 20.9375L276.875 20.3125Z" fill="#020202"/>
<path d="M280.625 288.438H319.375L444.375 289.062L447.5 290.312L450.625 294.062L451.875 297.188V303.438L449.375 307.188L446.25 310.312L444.375 310.938L261.25 311.562L251.875 314.062L245.625 319.062L241.875 324.688L240 328.438L239.375 331.562L238.75 418.438V457.812L239.375 500.938L242.5 508.438L246.25 513.438L251.875 517.188L256.25 519.062L260 519.688L429.375 520.312L445.625 520.938L450 524.688L451.875 529.062V535.312L449.375 539.062L446.875 541.562L441.875 542.812H259.375L250 540.938L241.875 537.812L235 533.438L228.75 528.438L222.5 519.062L218.75 510.938L216.875 502.812L216.25 479.062V354.062L216.875 329.688L218.75 320.938L221.25 314.688L225.625 307.812L230 302.812L236.875 297.188L243.125 293.438L251.25 290.312L259.375 289.062L280.625 288.438Z" fill="#020202"/>
<path d="M789.375 288.438H896.25L980.625 289.062L984.375 290.938L987.5 295.312L988.125 297.188V302.812L986.25 306.562L981.875 310.312L980.625 310.938L886.25 311.562L885.625 533.438L883.75 538.438L880 541.562L878.125 542.188H871.25L866.875 539.688L864.375 535.312L863.75 531.562L863.125 311.562L761.25 310.938L755.625 307.188L753.75 305.312L753.125 303.438V296.562L755.625 292.812L759.375 289.688L760.625 289.062L789.375 288.438Z" fill="#020202"/>
<path d="M495 289.062L500 290.312L505 294.688L506.875 298.438V319.062L507.5 468.438L510 479.688L515 489.688L518.75 495.938L526.25 504.688L533.125 510.312L543.75 515.938L550 517.812L551.875 519.062L570.625 520.938L573.75 522.812L576.875 526.562L577.5 529.062V534.688L575.625 538.438L570.625 542.188H558.75L548.75 540.938L530 534.688L521.875 529.688L514.375 524.062L503.125 512.812L496.25 503.438L491.25 494.062L487.5 482.812L485 470.312L484.375 454.688V312.188L485 295.938L489.375 290.938L491.25 289.688L495 289.062Z" fill="#020202"/>
<path d="M708.125 289.062L714.375 289.688L717.5 292.188L720 296.562V467.812L718.125 480.938L715 490.938L710 500.938L705.625 507.812L697.5 517.812L690.625 524.062L681.25 530.938L666.875 537.812L653.75 541.562L647.5 542.188H634.375L629.375 538.438L627.5 534.062V528.438L630.625 523.438L635 520.938L649.375 519.062L658.75 516.562L669.375 511.562L679.375 504.062L685 497.812L690 489.688L694.375 480.938L696.875 472.188L697.5 467.188L698.125 311.562L698.75 295.938L701.25 292.188L705 289.688L708.125 289.062Z" fill="#020202"/>
<path d="M1029.38 404.688H1246.25L1251.25 405.938L1255 410.312L1256.25 413.438V418.438L1254.38 422.188L1249.38 426.562L1246.25 427.188H1030.62L1026.25 425.312L1023.12 422.188L1021.25 419.062V412.188L1023.75 408.438L1027.5 405.312L1029.38 404.688Z" fill="#020202"/>
<path d="M1038.75 520.312H1234.38L1249.38 520.938L1253.12 523.438L1256.25 528.438L1256.88 531.562L1255 537.188L1252.5 540.312L1249.38 542.188L1246.88 542.812H1030.62L1025.62 540.938L1022.5 537.188L1021.25 534.688V528.438L1024.38 523.438L1028.12 520.938L1038.75 520.312Z" fill="#020202"/>
<path d="M1050.62 288.438L1248.12 289.062L1251.25 290.312L1254.38 293.438L1256.25 297.812V302.188L1254.38 306.562L1250 310.312L1248.75 310.938H1028.75L1023.75 307.188L1021.88 305.312L1021.25 303.438V296.562L1023.75 292.812L1028.12 289.062L1050.62 288.438Z" fill="#020202"/>
</g>
<path d="M542.682 616.636V623.455H514.455V616.636H542.682ZM522.909 669V609.409C522.909 606.409 523.614 603.909 525.023 601.909C526.432 599.909 528.261 598.409 530.511 597.409C532.761 596.409 535.136 595.909 537.636 595.909C539.614 595.909 541.227 596.068 542.477 596.386C543.727 596.705 544.659 597 545.273 597.273L542.955 604.227C542.545 604.091 541.977 603.92 541.25 603.716C540.545 603.511 539.614 603.409 538.455 603.409C535.795 603.409 533.875 604.08 532.693 605.42C531.534 606.761 530.955 608.727 530.955 611.318V669H522.909ZM587.066 670.227C583.748 670.227 580.737 669.602 578.032 668.352C575.328 667.08 573.18 665.25 571.589 662.864C569.998 660.455 569.203 657.545 569.203 654.136C569.203 651.136 569.794 648.705 570.976 646.841C572.157 644.955 573.737 643.477 575.714 642.409C577.691 641.341 579.873 640.545 582.26 640.023C584.669 639.477 587.089 639.045 589.521 638.727C592.703 638.318 595.282 638.011 597.26 637.807C599.26 637.58 600.714 637.205 601.623 636.682C602.555 636.159 603.021 635.25 603.021 633.955V633.682C603.021 630.318 602.101 627.705 600.26 625.841C598.441 623.977 595.68 623.045 591.976 623.045C588.135 623.045 585.123 623.886 582.941 625.568C580.76 627.25 579.226 629.045 578.339 630.955L570.703 628.227C572.066 625.045 573.885 622.568 576.157 620.795C578.453 619 580.953 617.75 583.657 617.045C586.385 616.318 589.066 615.955 591.703 615.955C593.385 615.955 595.316 616.159 597.498 616.568C599.703 616.955 601.828 617.761 603.873 618.989C605.941 620.216 607.657 622.068 609.021 624.545C610.385 627.023 611.066 630.341 611.066 634.5V669H603.021V661.909H602.612C602.066 663.045 601.157 664.261 599.885 665.557C598.612 666.852 596.919 667.955 594.805 668.864C592.691 669.773 590.112 670.227 587.066 670.227ZM588.294 663C591.476 663 594.157 662.375 596.339 661.125C598.544 659.875 600.203 658.261 601.316 656.284C602.453 654.307 603.021 652.227 603.021 650.045V642.682C602.68 643.091 601.93 643.466 600.771 643.807C599.635 644.125 598.316 644.409 596.816 644.659C595.339 644.886 593.896 645.091 592.487 645.273C591.101 645.432 589.976 645.568 589.112 645.682C587.021 645.955 585.066 646.398 583.248 647.011C581.453 647.602 579.998 648.5 578.885 649.705C577.794 650.886 577.248 652.5 577.248 654.545C577.248 657.341 578.282 659.455 580.351 660.886C582.441 662.295 585.089 663 588.294 663ZM682.042 628.364L674.815 630.409C674.36 629.205 673.69 628.034 672.803 626.898C671.94 625.739 670.758 624.784 669.258 624.034C667.758 623.284 665.838 622.909 663.497 622.909C660.292 622.909 657.622 623.648 655.485 625.125C653.372 626.58 652.315 628.432 652.315 630.682C652.315 632.682 653.042 634.261 654.497 635.42C655.951 636.58 658.224 637.545 661.315 638.318L669.088 640.227C673.769 641.364 677.258 643.102 679.553 645.443C681.849 647.761 682.997 650.75 682.997 654.409C682.997 657.409 682.133 660.091 680.406 662.455C678.701 664.818 676.315 666.682 673.247 668.045C670.178 669.409 666.61 670.091 662.542 670.091C657.201 670.091 652.781 668.932 649.281 666.614C645.781 664.295 643.565 660.909 642.633 656.455L650.269 654.545C650.997 657.364 652.372 659.477 654.394 660.886C656.44 662.295 659.11 663 662.406 663C666.156 663 669.133 662.205 671.338 660.614C673.565 659 674.678 657.068 674.678 654.818C674.678 653 674.042 651.477 672.769 650.25C671.497 649 669.542 648.068 666.906 647.455L658.178 645.409C653.383 644.273 649.86 642.511 647.61 640.125C645.383 637.716 644.269 634.705 644.269 631.091C644.269 628.136 645.099 625.523 646.758 623.25C648.44 620.977 650.724 619.193 653.61 617.898C656.519 616.602 659.815 615.955 663.497 615.955C668.678 615.955 672.747 617.091 675.701 619.364C678.678 621.636 680.792 624.636 682.042 628.364ZM722.353 637.5V669H714.307V599.182H722.353V624.818H723.035C724.262 622.114 726.103 619.966 728.557 618.375C731.035 616.761 734.33 615.955 738.444 615.955C742.012 615.955 745.137 616.67 747.819 618.102C750.501 619.511 752.58 621.682 754.057 624.614C755.557 627.523 756.307 631.227 756.307 635.727V669H748.262V636.273C748.262 632.114 747.182 628.898 745.023 626.625C742.887 624.33 739.921 623.182 736.126 623.182C733.489 623.182 731.126 623.739 729.035 624.852C726.966 625.966 725.33 627.591 724.126 629.727C722.944 631.864 722.353 634.455 722.353 637.5ZM790.226 669V616.636H798.272V669H790.226ZM794.317 607.909C792.749 607.909 791.397 607.375 790.26 606.307C789.147 605.239 788.59 603.955 788.59 602.455C788.59 600.955 789.147 599.67 790.26 598.602C791.397 597.534 792.749 597 794.317 597C795.885 597 797.226 597.534 798.34 598.602C799.476 599.67 800.044 600.955 800.044 602.455C800.044 603.955 799.476 605.239 798.34 606.307C797.226 607.375 795.885 607.909 794.317 607.909ZM853.48 670.091C848.753 670.091 844.605 668.966 841.037 666.716C837.491 664.466 834.719 661.318 832.719 657.273C830.741 653.227 829.753 648.5 829.753 643.091C829.753 637.636 830.741 632.875 832.719 628.807C834.719 624.739 837.491 621.58 841.037 619.33C844.605 617.08 848.753 615.955 853.48 615.955C858.207 615.955 862.344 617.08 865.889 619.33C869.457 621.58 872.23 624.739 874.207 628.807C876.207 632.875 877.207 637.636 877.207 643.091C877.207 648.5 876.207 653.227 874.207 657.273C872.23 661.318 869.457 664.466 865.889 666.716C862.344 668.966 858.207 670.091 853.48 670.091ZM853.48 662.864C857.071 662.864 860.026 661.943 862.344 660.102C864.662 658.261 866.378 655.841 867.491 652.841C868.605 649.841 869.162 646.591 869.162 643.091C869.162 639.591 868.605 636.33 867.491 633.307C866.378 630.284 864.662 627.841 862.344 625.977C860.026 624.114 857.071 623.182 853.48 623.182C849.889 623.182 846.935 624.114 844.616 625.977C842.298 627.841 840.582 630.284 839.469 633.307C838.355 636.33 837.798 639.591 837.798 643.091C837.798 646.591 838.355 649.841 839.469 652.841C840.582 655.841 842.298 658.261 844.616 660.102C846.935 661.943 849.889 662.864 853.48 662.864ZM916.734 637.5V669H908.689V616.636H916.461V624.818H917.143C918.37 622.159 920.234 620.023 922.734 618.409C925.234 616.773 928.461 615.955 932.416 615.955C935.961 615.955 939.064 616.682 941.723 618.136C944.382 619.568 946.45 621.75 947.927 624.682C949.405 627.591 950.143 631.273 950.143 635.727V669H942.098V636.273C942.098 632.159 941.03 628.955 938.893 626.659C936.757 624.341 933.825 623.182 930.098 623.182C927.53 623.182 925.234 623.739 923.211 624.852C921.211 625.966 919.632 627.591 918.473 629.727C917.314 631.864 916.734 634.455 916.734 637.5Z" fill="black"/>
<line x1="987" y1="634.5" x2="1257" y2="634.5" stroke="#020202" stroke-width="7"/>
<line x1="211" y1="634.5" x2="481" y2="634.5" stroke="#020202" stroke-width="7"/>
<defs>
<clipPath id="clip0_1010_91">
<rect width="1280" height="580" fill="white"/>
</clipPath>
</defs>
</svg>
